<?xml version="1.0" encoding="UTF-8" standalone="no"?>
<svg
   version="1.1"
   viewBox="-10 0 1136.02 1000"
   id="svg1332"
   sodipodi:docname="audio.svg"
   width="1136.02"
   height="1000"
   inkscape:version="1.1.1 (3bf5ae0d25, 2021-09-20)"
   inkscape:export-filename="/home/black/.config/qtile/icons/audio.png"
   inkscape:export-xdpi="1.92"
   inkscape:export-ydpi="1.92"
   xmlns:inkscape="http://www.inkscape.org/namespaces/inkscape"
   xmlns:sodipodi="http://sodipodi.sourceforge.net/DTD/sodipodi-0.dtd"
   xmlns="http://www.w3.org/2000/svg"
   xmlns:svg="http://www.w3.org/2000/svg">
  <defs
     id="defs1336" />
  <sodipodi:namedview
     id="namedview1334"
     pagecolor="#505050"
     bordercolor="#eeeeee"
     borderopacity="1"
     inkscape:pageshadow="0"
     inkscape:pageopacity="0"
     inkscape:pagecheckerboard="0"
     showgrid="false"
     inkscape:zoom="0.39103006"
     inkscape:cx="617.59958"
     inkscape:cy="530.64974"
     inkscape:window-width="1574"
     inkscape:window-height="854"
     inkscape:window-x="1379"
     inkscape:window-y="33"
     inkscape:window-maximized="1"
     inkscape:current-layer="svg1332" />
  <path
     fill="currentColor"
     d="m 514.18134,220.27706 v 458.6902 q 0,11.33501 -7.93451,19.26952 -7.9345,7.9345 -19.26952,7.9345 -11.33501,0 -18.89169,-7.55667 L 327.53147,558.06046 H 217.20403 q -11.33501,0 -19.26953,-7.93451 Q 190,542.19144 190,530.85643 V 369.14357 q 0,-11.33501 7.9345,-19.26952 7.93452,-7.9345 19.26953,-7.9345 H 327.53147 L 468.08562,201.38539 q 7.55668,-7.55668 18.89169,-7.55668 11.33502,0 19.26952,7.55668 7.93451,7.55667 7.93451,18.89167 z M 675.89418,450 q 0,31.73803 -18.13601,59.31989 -18.13603,27.58188 -47.60706,39.67255 -4.534,2.26701 -10.57934,2.26701 -11.33502,0 -18.89169,-7.93451 -7.55668,-7.9345 -7.55668,-19.26953 0,-10.57934 7.55668,-17.75818 7.55667,-7.17884 16.62468,-11.71285 9.06802,-4.53401 16.62469,-15.86902 7.55668,-11.33502 7.55668,-28.71536 0,-17.38035 -7.55668,-28.71537 -7.55667,-11.33501 -16.62469,-15.86901 -9.06801,-4.53401 -16.62468,-11.71284 -7.55668,-7.17884 -7.55668,-17.75819 0,-11.33502 7.55668,-19.26953 7.55667,-7.9345 18.89169,-7.9345 6.04534,0 10.57934,2.26699 29.47103,12.09068 47.60706,39.67255 18.13601,27.58186 18.13601,59.3199 z m 108.06045,0 q 0,64.23173 -35.8942,119.01763 -35.89421,54.78589 -94.83628,79.72293 -3.02266,1.51133 -10.57935,1.51133 -11.335,0 -19.64734,-7.55668 -8.31234,-7.55667 -8.31234,-18.89169 0,-15.86901 16.62468,-24.93702 25.69269,-13.60202 32.4937,-18.89169 30.98236,-22.67003 48.36272,-57.0529 17.38035,-34.38287 17.38035,-72.92191 0,-38.53904 -17.38035,-73.29975 -17.38036,-34.7607 -48.36272,-57.43073 -3.77834,-2.26701 -32.4937,-18.13603 -16.62468,-9.068 -16.62468,-24.93702 0,-11.33501 7.9345,-19.26952 7.93452,-7.93451 19.26952,-7.93451 6.80101,0 11.33501,2.26701 58.94207,24.93702 94.83628,79.72291 35.8942,54.78591 35.8942,119.01764 z m 108.06046,0 q 0,96.72544 -53.6524,177.9597 -53.6524,81.23426 -142.82115,119.7733 -4.53401,2.267 -10.57935,2.267 -11.33501,0 -19.26952,-7.93451 -7.9345,-7.93451 -7.9345,-19.26951 0,-14.35769 16.62468,-24.93704 3.02266,-1.51133 9.44584,-4.534 6.42318,-3.02267 9.44584,-4.534 15.86902,-8.31235 34.00504,-21.1587 52.14106,-38.53904 81.23426,-95.96977 Q 837.60702,514.23173 837.60702,450 q 0,-64.23173 -29.09319,-121.66247 -29.0932,-57.43073 -81.23426,-95.96977 -21.15869,-15.11336 -34.00504,-21.91437 -3.02266,-1.51133 -9.44584,-4.15616 -6.42318,-2.64485 -9.44584,-4.15618 -16.62468,-10.57934 -16.62468,-24.93702 0,-11.33502 7.9345,-19.26952 Q 673.62718,150 684.96219,150 q 6.04534,0 10.57935,2.267 89.16875,38.53904 142.82115,119.7733 53.6524,81.23425 53.6524,177.9597 z"
     id="path1330"
     style="fill:#ffffff;stroke-width:0.999998" />
</svg>
