<?xml version="1.0" encoding="UTF-8" standalone="no"?>
<!-- Created with Inkscape (http://www.inkscape.org/) -->

<svg
   width="1303.948"
   height="1000"
   viewBox="0 0 345.0029 264.58333"
   version="1.1"
   id="svg5"
   inkscape:version="1.1.1 (3bf5ae0d25, 2021-09-20)"
   sodipodi:docname="nvidia.svg"
   inkscape:export-filename="/home/black/.config/qtile/icons/nvidia.png"
   inkscape:export-xdpi="1.92"
   inkscape:export-ydpi="1.92"
   xmlns:inkscape="http://www.inkscape.org/namespaces/inkscape"
   xmlns:sodipodi="http://sodipodi.sourceforge.net/DTD/sodipodi-0.dtd"
   xmlns="http://www.w3.org/2000/svg"
   xmlns:svg="http://www.w3.org/2000/svg">
  <sodipodi:namedview
     id="namedview7"
     pagecolor="#505050"
     bordercolor="#eeeeee"
     borderopacity="1"
     inkscape:pageshadow="0"
     inkscape:pageopacity="0"
     inkscape:pagecheckerboard="0"
     inkscape:document-units="mm"
     showgrid="false"
     inkscape:zoom="0.49264169"
     inkscape:cx="575.46896"
     inkscape:cy="557.2001"
     inkscape:window-width="1574"
     inkscape:window-height="854"
     inkscape:window-x="1379"
     inkscape:window-y="33"
     inkscape:window-maximized="1"
     inkscape:current-layer="layer1"
     units="px"
     width="940px" />
  <defs
     id="defs2" />
  <g
     inkscape:label="Layer 1"
     inkscape:groupmode="layer"
     id="layer1">
    <path
       style="fill:#ffffff;stroke-width:0.999997"
       d="m 142.20757,189.12043 v -9.3171 l -1.75092,-0.25978 c -12.39989,-1.83977 -21.0691,-4.38048 -30.46599,-8.92876 -17.306245,-8.37652 -31.99904,-21.73733 -44.164761,-40.1609 -3.718297,-5.63097 -8.897673,-15.23342 -11.426382,-21.18437 l -1.48285,-3.48966 2.751928,-2.58018 C 62.490609,96.803393 75.17985,87.461493 85.309483,81.377855 102.94006,70.789298 120.27473,64.199969 136.60501,61.87923 c 2.69622,-0.383173 5.05977,-0.700525 5.25237,-0.705237 0.19262,-0.0045 0.35019,-4.841071 0.35019,-10.747513 V 39.6875 h 74.93934 74.93932 v 79.37499 79.37501 h -74.93932 -74.93934 z m 16.34192,-9.36901 c 35.82165,-2.1768 84.38022,-17.58017 109.02389,-34.5837 1.79762,-1.24031 3.9851,-2.85527 4.86104,-3.58881 l 1.59265,-1.33368 -3.22682,-2.13337 c -1.7748,-1.17338 -6.16841,-3.76256 -9.76364,-5.75376 -3.59521,-1.99117 -8.26867,-4.65488 -10.38546,-5.91928 l -3.84869,-2.29896 -5.95644,4.9856 c -32.99004,27.61289 -58.39217,38.6048 -89.41694,38.69226 l -9.22151,0.0259 v 5.93977 5.93978 l 3.85203,0.15724 c 2.11861,0.0865 4.06211,0.19819 4.31892,0.24815 0.2568,0.05 3.93371,-0.11977 8.17097,-0.37729 z m -16.34192,-19.13785 v -6.54085 l 2.68474,0.35428 c 4.78082,0.63082 15.00739,0.36759 19.26011,-0.49576 14.75866,-2.99623 30.57815,-11.12716 46.85388,-24.08218 6.07307,-4.83399 25.05052,-23.21398 25.05052,-24.26189 0,-0.94669 -14.5141,-15.193687 -19.44651,-19.088565 -9.86897,-7.7931 -20.21684,-13.89863 -30.51302,-18.003536 -12.6017,-5.024098 -21.07624,-6.780119 -34.66821,-7.183709 l -9.22151,-0.273794 v 5.891446 c 0,6.774131 0.73521,5.949266 -6.06984,6.810254 -15.62712,1.977228 -32.19303,9.403319 -45.056993,20.197907 -4.332475,3.63553 -9.708457,9.055257 -12.123591,12.222287 l -1.376228,1.80465 1.079427,3.09792 c 1.589882,4.56286 6.709202,14.5678 10.185849,19.90672 11.913946,18.29559 27.832396,30.45741 45.423886,34.7042 8.86571,2.14027 7.93749,2.73193 7.93749,-5.05938 z m -5.60294,-7.74135 c -5.1673,-1.50898 -13.42056,-5.5925 -17.37203,-8.59532 -4.08839,-3.10687 -9.48548,-8.63769 -12.98636,-13.30815 -4.27633,-5.70498 -11.184323,-20.09338 -10.33483,-21.526 0.746483,-1.25893 7.23095,-6.58819 11.27778,-9.26865 9.28629,-6.150857 20.50747,-10.734207 30.1022,-12.295387 l 4.91463,-0.79967 8.9e-4,-7.065538 9e-4,-7.065543 3.38511,-0.302822 c 4.07343,-0.364394 11.32842,0.293376 16.98541,1.539943 11.31281,2.492918 23.28265,8.518802 33.74211,16.98651 3.90319,3.15995 11.10944,10.244227 13.44274,13.215287 l 1.48734,1.8939 -2.56693,3.23921 c -10.45374,13.19145 -24.26895,24.85295 -36.13961,30.50561 -7.46637,3.55541 -11.50539,4.48992 -19.13032,4.42625 -3.96239,-0.033 -7.17029,-0.30359 -8.63785,-0.72844 l -2.33454,-0.67582 -0.12143,-21.7977 -0.12173,-21.797667 -2.68013,0.008 c -7.26981,0.0187 -16.41956,4.273047 -22.48005,10.452477 l -2.05727,2.09767 0.84226,2.24262 c 4.73055,12.59554 13.46091,22.77259 23.40215,27.28018 l 2.98226,1.35221 v 5.59829 c 0,6.50987 0.45009,6.15725 -5.60294,4.38963 z m 42.81535,-37.83794 c 5.08492,-4.26992 9.53596,-8.03489 9.89116,-8.36656 1.45581,-1.35939 -8.68789,-10.018797 -16.43721,-14.032037 -5.09212,-2.63712 -9.63848,-4.21207 -14.7358,-5.10477 -4.00721,-0.70179 -11.86208,-0.915388 -14.47147,-0.3935 l -1.45909,0.29182 v 5.93197 5.93197 l 3.61858,0.779037 c 9.17846,1.97597 13.77311,6.0948 21.57487,19.34047 1.09661,1.8618 2.1693,3.3851 2.38373,3.3851 0.21446,0 4.55031,-3.49356 9.63523,-7.7635 z"
       id="path1068" />
  </g>
</svg>
