<?xml version="1.0" encoding="UTF-8" standalone="no"?>
<svg
   version="1.1"
   viewBox="-10 0 1118.4 1000"
   id="svg4"
   sodipodi:docname="wifi.svg"
   width="1118.4"
   height="1000"
   inkscape:version="1.1.1 (3bf5ae0d25, 2021-09-20)"
   inkscape:export-filename="/home/black/.config/qtile/icons/wifi.png"
   inkscape:export-xdpi="1.92"
   inkscape:export-ydpi="1.92"
   xmlns:inkscape="http://www.inkscape.org/namespaces/inkscape"
   xmlns:sodipodi="http://sodipodi.sourceforge.net/DTD/sodipodi-0.dtd"
   xmlns="http://www.w3.org/2000/svg"
   xmlns:svg="http://www.w3.org/2000/svg">
  <defs
     id="defs8" />
  <sodipodi:namedview
     id="namedview6"
     pagecolor="#505050"
     bordercolor="#eeeeee"
     borderopacity="1"
     inkscape:pageshadow="0"
     inkscape:pageopacity="0"
     inkscape:pagecheckerboard="0"
     showgrid="false"
     inkscape:zoom="0.2765"
     inkscape:cx="117.54069"
     inkscape:cy="544.3038"
     inkscape:window-width="1574"
     inkscape:window-height="854"
     inkscape:window-x="1379"
     inkscape:window-y="33"
     inkscape:window-maximized="1"
     inkscape:current-layer="svg4" />
  <path
     fill="currentColor"
     d="m 544.26667,725 110,-145.93333 q -46.93333,-35.93333 -110,-35.93333 -63.06667,0 -110,35.93333 z m 0,-550 Q 451.13333,175 367.53333,203.6 283.93333,232.2 215,285 l 54.26667,73.33333 q 57.2,-43.26666 127.6,-67.46666 70.4,-24.2 147.4,-24.2 77,0 147.4,24.2 70.4,24.2 127.6,67.46666 L 873.53334,285 Q 804.6,232.2 721,203.6 637.4,175 544.26667,175 Z m 0,183.33333 q -61.6,0 -117.33334,19.43334 -55.73333,19.43333 -103.4,53.9 l 55.73334,72.6 Q 413.73333,478.6 455.53333,464.3 497.33333,450 544.26667,450 591.2,450 633,464.3 q 41.8,14.3 76.26667,39.96667 L 765,431.66667 q -46.93333,-34.46667 -103.03333,-53.9 -56.1,-19.43334 -117.7,-19.43334 z"
     id="path2"
     style="fill:#ffffff;stroke-width:1" />
</svg>
